<mxfile host="app.diagrams.net" agent="Mozilla/5.0 (Windows NT 10.0; Win64; x64) AppleWebKit/537.36 (KHTML, like Gecko) Chrome/140.0.0.0 Safari/537.36" version="28.2.0">
  <diagram name="Page-1" id="6ZvfY1jOY9IKmXpt_HHQ">
    <mxGraphModel dx="1230" dy="1102" grid="1" gridSize="10" guides="1" tooltips="1" connect="1" arrows="1" fold="1" page="1" pageScale="1" pageWidth="1200" pageHeight="1920" math="0" shadow="0">
      <root>
        <mxCell id="0" />
        <mxCell id="1" parent="0" />
        <mxCell id="TEvgyOCVqHvZkTJe5zZY-51" value="" style="whiteSpace=wrap;html=1;" vertex="1" parent="1">
          <mxGeometry x="525" y="180" width="120" height="680" as="geometry" />
        </mxCell>
        <mxCell id="TEvgyOCVqHvZkTJe5zZY-50" value="" style="rounded=1;whiteSpace=wrap;html=1;movable=1;resizable=1;rotatable=1;deletable=1;editable=1;locked=0;connectable=1;" vertex="1" parent="1">
          <mxGeometry x="525" y="180" width="120" height="640" as="geometry" />
        </mxCell>
        <mxCell id="TEvgyOCVqHvZkTJe5zZY-48" value="" style="rounded=1;whiteSpace=wrap;html=1;" vertex="1" parent="1">
          <mxGeometry x="280" y="180" width="120" height="60" as="geometry" />
        </mxCell>
        <mxCell id="TEvgyOCVqHvZkTJe5zZY-1" value="Users&amp;nbsp;" style="ellipse;whiteSpace=wrap;html=1;aspect=fixed;" vertex="1" parent="1">
          <mxGeometry x="10" y="480" width="80" height="80" as="geometry" />
        </mxCell>
        <mxCell id="TEvgyOCVqHvZkTJe5zZY-4" value="" style="whiteSpace=wrap;html=1;aspect=fixed;" vertex="1" parent="1">
          <mxGeometry x="160" y="130" width="930" height="930" as="geometry" />
        </mxCell>
        <mxCell id="TEvgyOCVqHvZkTJe5zZY-5" value="" style="whiteSpace=wrap;html=1;aspect=fixed;movable=1;resizable=1;rotatable=1;deletable=1;editable=1;locked=0;connectable=1;" vertex="1" parent="1">
          <mxGeometry x="230" y="140" width="830" height="830" as="geometry" />
        </mxCell>
        <mxCell id="TEvgyOCVqHvZkTJe5zZY-6" value="Region&amp;nbsp;" style="text;html=1;align=center;verticalAlign=middle;resizable=0;points=[];autosize=1;strokeColor=none;fillColor=none;" vertex="1" parent="1">
          <mxGeometry x="615" y="90" width="60" height="30" as="geometry" />
        </mxCell>
        <mxCell id="TEvgyOCVqHvZkTJe5zZY-7" value="Virtual Private Cloud&amp;nbsp;" style="text;html=1;align=center;verticalAlign=middle;whiteSpace=wrap;rounded=0;" vertex="1" parent="1">
          <mxGeometry x="220" y="150" width="210" height="30" as="geometry" />
        </mxCell>
        <mxCell id="TEvgyOCVqHvZkTJe5zZY-10" value="" style="rounded=1;whiteSpace=wrap;html=1;" vertex="1" parent="1">
          <mxGeometry x="415" y="250" width="575" height="130" as="geometry" />
        </mxCell>
        <mxCell id="TEvgyOCVqHvZkTJe5zZY-11" value="AZ-1" style="text;html=1;align=center;verticalAlign=middle;whiteSpace=wrap;rounded=0;" vertex="1" parent="1">
          <mxGeometry x="440" y="270" width="60" height="30" as="geometry" />
        </mxCell>
        <mxCell id="TEvgyOCVqHvZkTJe5zZY-12" value="" style="rounded=1;whiteSpace=wrap;html=1;" vertex="1" parent="1">
          <mxGeometry x="415" y="455" width="575" height="130" as="geometry" />
        </mxCell>
        <mxCell id="TEvgyOCVqHvZkTJe5zZY-13" value="" style="rounded=1;whiteSpace=wrap;html=1;" vertex="1" parent="1">
          <mxGeometry x="415" y="650" width="575" height="130" as="geometry" />
        </mxCell>
        <mxCell id="TEvgyOCVqHvZkTJe5zZY-14" value="AZ-2" style="text;html=1;align=center;verticalAlign=middle;whiteSpace=wrap;rounded=0;" vertex="1" parent="1">
          <mxGeometry x="440" y="460" width="60" height="30" as="geometry" />
        </mxCell>
        <mxCell id="TEvgyOCVqHvZkTJe5zZY-15" value="AZ-3" style="text;html=1;align=center;verticalAlign=middle;whiteSpace=wrap;rounded=0;" vertex="1" parent="1">
          <mxGeometry x="440" y="660" width="60" height="30" as="geometry" />
        </mxCell>
        <mxCell id="TEvgyOCVqHvZkTJe5zZY-16" value="Internet&#xa;gateway" style="sketch=0;outlineConnect=0;fontColor=#232F3E;gradientColor=none;strokeColor=#232F3E;fillColor=#ffffff;dashed=0;verticalLabelPosition=bottom;verticalAlign=top;align=center;html=1;fontSize=12;fontStyle=0;aspect=fixed;shape=mxgraph.aws4.resourceIcon;resIcon=mxgraph.aws4.internet_gateway;" vertex="1" parent="1">
          <mxGeometry x="200" y="480" width="60" height="60" as="geometry" />
        </mxCell>
        <mxCell id="TEvgyOCVqHvZkTJe5zZY-18" value="" style="rounded=1;whiteSpace=wrap;html=1;" vertex="1" parent="1">
          <mxGeometry x="520" y="270" width="220" height="100" as="geometry" />
        </mxCell>
        <mxCell id="TEvgyOCVqHvZkTJe5zZY-19" value="" style="rounded=1;whiteSpace=wrap;html=1;" vertex="1" parent="1">
          <mxGeometry x="660" y="481" width="220" height="90" as="geometry" />
        </mxCell>
        <mxCell id="TEvgyOCVqHvZkTJe5zZY-20" value="" style="rounded=1;whiteSpace=wrap;html=1;" vertex="1" parent="1">
          <mxGeometry x="720" y="670" width="230" height="90" as="geometry" />
        </mxCell>
        <mxCell id="TEvgyOCVqHvZkTJe5zZY-25" value="" style="sketch=0;points=[[0,0,0],[0.25,0,0],[0.5,0,0],[0.75,0,0],[1,0,0],[0,1,0],[0.25,1,0],[0.5,1,0],[0.75,1,0],[1,1,0],[0,0.25,0],[0,0.5,0],[0,0.75,0],[1,0.25,0],[1,0.5,0],[1,0.75,0]];outlineConnect=0;fontColor=#232F3E;fillColor=#8C4FFF;strokeColor=#ffffff;dashed=0;verticalLabelPosition=bottom;verticalAlign=top;align=center;html=1;fontSize=12;fontStyle=0;aspect=fixed;shape=mxgraph.aws4.resourceIcon;resIcon=mxgraph.aws4.elastic_load_balancing;" vertex="1" parent="1">
          <mxGeometry x="270" y="491" width="38" height="38" as="geometry" />
        </mxCell>
        <mxCell id="TEvgyOCVqHvZkTJe5zZY-26" value="Target Group -1" style="text;html=1;align=center;verticalAlign=middle;whiteSpace=wrap;rounded=1;movable=0;resizable=0;rotatable=0;deletable=0;editable=0;locked=1;connectable=0;" vertex="1" parent="1">
          <mxGeometry x="530" y="279" width="120" height="230" as="geometry" />
        </mxCell>
        <mxCell id="TEvgyOCVqHvZkTJe5zZY-27" value="" style="rounded=1;whiteSpace=wrap;html=1;" vertex="1" parent="1">
          <mxGeometry x="680" y="495" width="120" height="60" as="geometry" />
        </mxCell>
        <mxCell id="TEvgyOCVqHvZkTJe5zZY-28" value="" style="rounded=1;whiteSpace=wrap;html=1;" vertex="1" parent="1">
          <mxGeometry x="540" y="290" width="90" height="60" as="geometry" />
        </mxCell>
        <mxCell id="TEvgyOCVqHvZkTJe5zZY-29" value="" style="rounded=1;whiteSpace=wrap;html=1;" vertex="1" parent="1">
          <mxGeometry x="814" y="690" width="120" height="60" as="geometry" />
        </mxCell>
        <mxCell id="TEvgyOCVqHvZkTJe5zZY-30" value="Public Subnet" style="text;html=1;align=center;verticalAlign=middle;whiteSpace=wrap;rounded=0;" vertex="1" parent="1">
          <mxGeometry x="660" y="280" width="60" height="30" as="geometry" />
        </mxCell>
        <mxCell id="TEvgyOCVqHvZkTJe5zZY-31" value="Public Subnet" style="text;html=1;align=center;verticalAlign=middle;whiteSpace=wrap;rounded=0;" vertex="1" parent="1">
          <mxGeometry x="814" y="509" width="60" height="30" as="geometry" />
        </mxCell>
        <mxCell id="TEvgyOCVqHvZkTJe5zZY-32" value="Public Subnet" style="text;html=1;align=center;verticalAlign=middle;whiteSpace=wrap;rounded=0;" vertex="1" parent="1">
          <mxGeometry x="738" y="700" width="60" height="30" as="geometry" />
        </mxCell>
        <mxCell id="TEvgyOCVqHvZkTJe5zZY-35" value="" style="endArrow=classic;html=1;rounded=0;" edge="1" parent="1" source="TEvgyOCVqHvZkTJe5zZY-25">
          <mxGeometry relative="1" as="geometry">
            <mxPoint x="350" y="460" as="sourcePoint" />
            <mxPoint x="411" y="284.5" as="targetPoint" />
          </mxGeometry>
        </mxCell>
        <mxCell id="TEvgyOCVqHvZkTJe5zZY-36" value="&lt;b&gt;&lt;i&gt;New Path (Data)&lt;/i&gt;&lt;/b&gt;" style="edgeLabel;resizable=0;html=1;;align=center;verticalAlign=middle;" connectable="0" vertex="1" parent="TEvgyOCVqHvZkTJe5zZY-35">
          <mxGeometry relative="1" as="geometry" />
        </mxCell>
        <mxCell id="TEvgyOCVqHvZkTJe5zZY-37" value="" style="endArrow=classic;html=1;rounded=0;exitX=0.5;exitY=1;exitDx=0;exitDy=0;exitPerimeter=0;entryX=0;entryY=0.5;entryDx=0;entryDy=0;" edge="1" parent="1" source="TEvgyOCVqHvZkTJe5zZY-25" target="TEvgyOCVqHvZkTJe5zZY-13">
          <mxGeometry relative="1" as="geometry">
            <mxPoint x="310" y="800.5" as="sourcePoint" />
            <mxPoint x="411" y="590" as="targetPoint" />
          </mxGeometry>
        </mxCell>
        <mxCell id="TEvgyOCVqHvZkTJe5zZY-38" value="&lt;b&gt;&lt;i&gt;New Path (User)&lt;/i&gt;&lt;/b&gt;" style="edgeLabel;resizable=0;html=1;;align=center;verticalAlign=middle;" connectable="0" vertex="1" parent="TEvgyOCVqHvZkTJe5zZY-37">
          <mxGeometry relative="1" as="geometry" />
        </mxCell>
        <mxCell id="TEvgyOCVqHvZkTJe5zZY-39" value="" style="endArrow=classic;html=1;rounded=0;" edge="1" parent="1">
          <mxGeometry relative="1" as="geometry">
            <mxPoint x="309" y="512" as="sourcePoint" />
            <mxPoint x="414" y="508" as="targetPoint" />
            <Array as="points">
              <mxPoint x="414" y="508" />
            </Array>
          </mxGeometry>
        </mxCell>
        <mxCell id="TEvgyOCVqHvZkTJe5zZY-40" value="&lt;b&gt;&lt;i&gt;Default Routing with URL&lt;/i&gt;&lt;/b&gt;" style="edgeLabel;resizable=0;html=1;;align=center;verticalAlign=middle;" connectable="0" vertex="1" parent="TEvgyOCVqHvZkTJe5zZY-39">
          <mxGeometry relative="1" as="geometry">
            <mxPoint x="382" y="-288" as="offset" />
          </mxGeometry>
        </mxCell>
        <mxCell id="TEvgyOCVqHvZkTJe5zZY-41" value="&lt;b&gt;Default&lt;/b&gt;" style="edgeLabel;html=1;align=center;verticalAlign=middle;resizable=0;points=[];" vertex="1" connectable="0" parent="TEvgyOCVqHvZkTJe5zZY-39">
          <mxGeometry x="0.011" y="2" relative="1" as="geometry">
            <mxPoint as="offset" />
          </mxGeometry>
        </mxCell>
        <mxCell id="TEvgyOCVqHvZkTJe5zZY-43" value="" style="sketch=0;points=[[0,0,0],[0.25,0,0],[0.5,0,0],[0.75,0,0],[1,0,0],[0,1,0],[0.25,1,0],[0.5,1,0],[0.75,1,0],[1,1,0],[0,0.25,0],[0,0.5,0],[0,0.75,0],[1,0.25,0],[1,0.5,0],[1,0.75,0]];outlineConnect=0;fontColor=#232F3E;fillColor=#ED7100;strokeColor=#ffffff;dashed=0;verticalLabelPosition=bottom;verticalAlign=top;align=center;html=1;fontSize=12;fontStyle=0;aspect=fixed;shape=mxgraph.aws4.resourceIcon;resIcon=mxgraph.aws4.ec2;" vertex="1" parent="1">
          <mxGeometry x="571" y="306" width="28" height="28" as="geometry" />
        </mxCell>
        <mxCell id="TEvgyOCVqHvZkTJe5zZY-44" value="" style="sketch=0;points=[[0,0,0],[0.25,0,0],[0.5,0,0],[0.75,0,0],[1,0,0],[0,1,0],[0.25,1,0],[0.5,1,0],[0.75,1,0],[1,1,0],[0,0.25,0],[0,0.5,0],[0,0.75,0],[1,0.25,0],[1,0.5,0],[1,0.75,0]];outlineConnect=0;fontColor=#232F3E;fillColor=#ED7100;strokeColor=#ffffff;dashed=0;verticalLabelPosition=bottom;verticalAlign=top;align=center;html=1;fontSize=12;fontStyle=0;aspect=fixed;shape=mxgraph.aws4.resourceIcon;resIcon=mxgraph.aws4.ec2;" vertex="1" parent="1">
          <mxGeometry x="710" y="511" width="28" height="28" as="geometry" />
        </mxCell>
        <mxCell id="TEvgyOCVqHvZkTJe5zZY-45" value="" style="sketch=0;points=[[0,0,0],[0.25,0,0],[0.5,0,0],[0.75,0,0],[1,0,0],[0,1,0],[0.25,1,0],[0.5,1,0],[0.75,1,0],[1,1,0],[0,0.25,0],[0,0.5,0],[0,0.75,0],[1,0.25,0],[1,0.5,0],[1,0.75,0]];outlineConnect=0;fontColor=#232F3E;fillColor=#ED7100;strokeColor=#ffffff;dashed=0;verticalLabelPosition=bottom;verticalAlign=top;align=center;html=1;fontSize=12;fontStyle=0;aspect=fixed;shape=mxgraph.aws4.resourceIcon;resIcon=mxgraph.aws4.ec2;" vertex="1" parent="1">
          <mxGeometry x="880" y="706" width="28" height="28" as="geometry" />
        </mxCell>
        <mxCell id="TEvgyOCVqHvZkTJe5zZY-47" value="" style="endArrow=classic;startArrow=classic;html=1;rounded=0;" edge="1" parent="1" target="TEvgyOCVqHvZkTJe5zZY-16">
          <mxGeometry width="50" height="50" relative="1" as="geometry">
            <mxPoint x="90" y="511" as="sourcePoint" />
            <mxPoint x="140" y="461" as="targetPoint" />
          </mxGeometry>
        </mxCell>
        <mxCell id="TEvgyOCVqHvZkTJe5zZY-52" value="Target Group -&amp;nbsp;&lt;span style=&quot;background-color: transparent; color: light-dark(rgb(0, 0, 0), rgb(255, 255, 255));&quot;&gt;2&lt;/span&gt;&lt;div&gt;&lt;div&gt;&lt;br&gt;&lt;/div&gt;&lt;div&gt;&lt;br&gt;&lt;/div&gt;&lt;div&gt;&lt;br&gt;&lt;/div&gt;&lt;div&gt;&lt;br&gt;&lt;/div&gt;&lt;div&gt;&lt;br&gt;&lt;/div&gt;&lt;div&gt;&lt;br&gt;&lt;/div&gt;&lt;/div&gt;" style="text;html=1;align=center;verticalAlign=middle;whiteSpace=wrap;rounded=1;movable=1;resizable=1;rotatable=1;deletable=1;editable=1;locked=0;connectable=1;" vertex="1" parent="1">
          <mxGeometry x="675" y="444.5" width="120" height="131" as="geometry" />
        </mxCell>
        <mxCell id="TEvgyOCVqHvZkTJe5zZY-53" value="Target Group -&amp;nbsp;&lt;span style=&quot;background-color: transparent; color: light-dark(rgb(0, 0, 0), rgb(255, 255, 255));&quot;&gt;3&lt;/span&gt;&lt;div&gt;&lt;div&gt;&lt;br&gt;&lt;/div&gt;&lt;div&gt;&lt;br&gt;&lt;/div&gt;&lt;div&gt;&lt;br&gt;&lt;/div&gt;&lt;div&gt;&lt;br&gt;&lt;/div&gt;&lt;div&gt;&lt;br&gt;&lt;/div&gt;&lt;div&gt;&lt;br&gt;&lt;/div&gt;&lt;/div&gt;" style="text;html=1;align=center;verticalAlign=middle;whiteSpace=wrap;rounded=1;movable=1;resizable=1;rotatable=1;deletable=1;editable=1;locked=0;connectable=1;" vertex="1" parent="1">
          <mxGeometry x="834" y="660" width="120" height="131" as="geometry" />
        </mxCell>
      </root>
    </mxGraphModel>
  </diagram>
</mxfile>
